<svg xmlns="http://www.w3.org/2000/svg" xmlns:xlink="http://www.w3.org/1999/xlink" width="500" zoomAndPan="magnify" viewBox="0 0 375 374.999991" height="500" preserveAspectRatio="xMidYMid meet" version="1.0"><defs><g/><clipPath id="c19017a77a"><path d="M 203 123.199219 L 272.613281 123.199219 L 272.613281 187.699219 L 203 187.699219 Z M 203 123.199219 " clip-rule="nonzero"/></clipPath><clipPath id="99856a2a89"><path d="M 171 123.199219 L 215 123.199219 L 215 178 L 171 178 Z M 171 123.199219 " clip-rule="nonzero"/></clipPath><clipPath id="6641a432dc"><path d="M 102.363281 142 L 143 142 L 143 187.699219 L 102.363281 187.699219 Z M 102.363281 142 " clip-rule="nonzero"/></clipPath><clipPath id="e3c17b049a"><path d="M 142 142 L 184 142 L 184 187.699219 L 142 187.699219 Z M 142 142 " clip-rule="nonzero"/></clipPath></defs><g clip-path="url(#c19017a77a)"><path fill="#e6b35b" d="M 214.636719 123.207031 L 272.613281 187.703125 L 203.261719 187.703125 L 256.359375 182.4375 L 214.636719 136.015625 L 214.636719 123.207031 " fill-opacity="1" fill-rule="nonzero"/></g><g clip-path="url(#99856a2a89)"><path fill="#c69237" d="M 171.429688 171.269531 L 177.191406 177.675781 L 214.636719 136.015625 L 214.636719 123.207031 L 171.429688 171.269531 " fill-opacity="1" fill-rule="nonzero"/></g><g clip-path="url(#6641a432dc)"><path fill="#c69237" d="M 122.984375 164.777344 L 122.984375 157.042969 L 115.355469 157.042969 L 110.714844 163.730469 L 115.355469 161.285156 L 115.355469 173.261719 L 102.363281 187.703125 L 113.886719 187.703125 L 142.707031 155.667969 L 142.707031 142.855469 L 122.984375 164.777344 " fill-opacity="1" fill-rule="nonzero"/></g><g clip-path="url(#e3c17b049a)"><path fill="#e6b35b" d="M 142.707031 142.855469 L 142.707031 155.667969 L 171.523438 187.703125 L 183.046875 187.703125 L 142.707031 142.855469 " fill-opacity="1" fill-rule="nonzero"/></g><path fill="#e6b35b" d="M 213.707031 166.789062 L 206.101562 166.789062 L 206.101562 159.152344 L 213.707031 159.152344 L 213.707031 166.789062 " fill-opacity="1" fill-rule="nonzero"/><path fill="#e6b35b" d="M 223.171875 166.789062 L 215.566406 166.789062 L 215.566406 159.152344 L 223.171875 159.152344 L 223.171875 166.789062 " fill-opacity="1" fill-rule="nonzero"/><path fill="#e6b35b" d="M 213.707031 176.363281 L 206.101562 176.363281 L 206.101562 168.730469 L 213.707031 168.730469 L 213.707031 176.363281 " fill-opacity="1" fill-rule="nonzero"/><path fill="#e6b35b" d="M 223.171875 176.363281 L 215.566406 176.363281 L 215.566406 168.730469 L 223.171875 168.730469 L 223.171875 176.363281 " fill-opacity="1" fill-rule="nonzero"/><path fill="#e6b35b" d="M 142.027344 176.96875 L 136.472656 176.96875 L 136.472656 171.394531 L 142.027344 171.394531 L 142.027344 176.96875 " fill-opacity="1" fill-rule="nonzero"/><path fill="#e6b35b" d="M 148.9375 176.96875 L 143.382812 176.96875 L 143.382812 171.394531 L 148.9375 171.394531 L 148.9375 176.96875 " fill-opacity="1" fill-rule="nonzero"/><path fill="#e6b35b" d="M 142.027344 183.960938 L 136.472656 183.960938 L 136.472656 178.386719 L 142.027344 178.386719 L 142.027344 183.960938 " fill-opacity="1" fill-rule="nonzero"/><path fill="#e6b35b" d="M 148.9375 183.960938 L 143.382812 183.960938 L 143.382812 178.386719 L 148.9375 178.386719 L 148.9375 183.960938 " fill-opacity="1" fill-rule="nonzero"/><g fill="#e6b35b" fill-opacity="1"><g transform="translate(136.794957, 249.826184)"><g><path d="M 1 0 L 1 -7.3125 L 1.859375 -7.3125 L 1.859375 -0.765625 L 5.078125 -0.765625 L 5.078125 0 Z M 1 0 "/></g></g></g><g fill="#e6b35b" fill-opacity="1"><g transform="translate(144.213955, 249.826184)"><g><path d="M 1 0 L 1 -7.3125 L 1.859375 -7.3125 L 1.859375 0 Z M 1 0 "/></g></g></g><g fill="#e6b35b" fill-opacity="1"><g transform="translate(149.175243, 249.826184)"><g><path d="M 5.171875 -7.3125 L 6.09375 -7.3125 L 3.453125 0 L 2.625 0 L 0 -7.3125 L 0.90625 -7.3125 L 2.578125 -2.578125 C 2.773438 -2.035156 2.925781 -1.507812 3.03125 -1 C 3.15625 -1.53125 3.316406 -2.066406 3.515625 -2.609375 Z M 5.171875 -7.3125 "/></g></g></g><g fill="#e6b35b" fill-opacity="1"><g transform="translate(157.373515, 249.826184)"><g><path d="M 5.078125 0 L 1 0 L 1 -7.3125 L 5.078125 -7.3125 L 5.078125 -6.546875 L 1.859375 -6.546875 L 1.859375 -4.203125 L 4.875 -4.203125 L 4.875 -3.453125 L 1.859375 -3.453125 L 1.859375 -0.765625 L 5.078125 -0.765625 Z M 5.078125 0 "/></g></g></g><g fill="#e6b35b" fill-opacity="1"><g transform="translate(165.17216, 249.826184)"><g/></g></g><g fill="#e6b35b" fill-opacity="1"><g transform="translate(169.938624, 249.826184)"><g><path d="M 1 0 L 1 -7.3125 L 1.859375 -7.3125 L 1.859375 0 Z M 1 0 "/></g></g></g><g fill="#e6b35b" fill-opacity="1"><g transform="translate(174.899912, 249.826184)"><g><path d="M 6.71875 0 L 5.734375 0 L 1.75 -6.125 L 1.703125 -6.125 C 1.753906 -5.40625 1.78125 -4.75 1.78125 -4.15625 L 1.78125 0 L 1 0 L 1 -7.3125 L 1.96875 -7.3125 L 5.953125 -1.203125 L 5.984375 -1.203125 C 5.984375 -1.285156 5.96875 -1.570312 5.9375 -2.0625 C 5.914062 -2.550781 5.910156 -2.898438 5.921875 -3.109375 L 5.921875 -7.3125 L 6.71875 -7.3125 Z M 6.71875 0 "/></g></g></g><g fill="#e6b35b" fill-opacity="1"><g transform="translate(184.721666, 249.826184)"><g/></g></g><g fill="#e6b35b" fill-opacity="1"><g transform="translate(189.488129, 249.826184)"><g><path d="M 1 0 L 1 -7.3125 L 1.859375 -7.3125 L 1.859375 -0.765625 L 5.078125 -0.765625 L 5.078125 0 Z M 1 0 "/></g></g></g><g fill="#e6b35b" fill-opacity="1"><g transform="translate(196.907128, 249.826184)"><g><path d="M 6.515625 -7.3125 L 6.515625 -2.578125 C 6.515625 -1.742188 6.265625 -1.085938 5.765625 -0.609375 C 5.265625 -0.140625 4.570312 0.09375 3.6875 0.09375 C 2.8125 0.09375 2.128906 -0.144531 1.640625 -0.625 C 1.160156 -1.101562 0.921875 -1.757812 0.921875 -2.59375 L 0.921875 -7.3125 L 1.78125 -7.3125 L 1.78125 -2.53125 C 1.78125 -1.925781 1.945312 -1.457031 2.28125 -1.125 C 2.613281 -0.800781 3.101562 -0.640625 3.75 -0.640625 C 4.363281 -0.640625 4.835938 -0.800781 5.171875 -1.125 C 5.503906 -1.457031 5.671875 -1.929688 5.671875 -2.546875 L 5.671875 -7.3125 Z M 6.515625 -7.3125 "/></g></g></g><g fill="#e6b35b" fill-opacity="1"><g transform="translate(206.464134, 249.826184)"><g><path d="M 5.859375 0 L 4.90625 0 L 2.9375 -3.21875 L 0.9375 0 L 0.046875 0 L 2.46875 -3.8125 L 0.203125 -7.3125 L 1.140625 -7.3125 L 2.953125 -4.40625 L 4.78125 -7.3125 L 5.6875 -7.3125 L 3.421875 -3.84375 Z M 5.859375 0 "/></g></g></g><g fill="#e6b35b" fill-opacity="1"><g transform="translate(214.477573, 249.826184)"><g><path d="M 6.515625 -7.3125 L 6.515625 -2.578125 C 6.515625 -1.742188 6.265625 -1.085938 5.765625 -0.609375 C 5.265625 -0.140625 4.570312 0.09375 3.6875 0.09375 C 2.8125 0.09375 2.128906 -0.144531 1.640625 -0.625 C 1.160156 -1.101562 0.921875 -1.757812 0.921875 -2.59375 L 0.921875 -7.3125 L 1.78125 -7.3125 L 1.78125 -2.53125 C 1.78125 -1.925781 1.945312 -1.457031 2.28125 -1.125 C 2.613281 -0.800781 3.101562 -0.640625 3.75 -0.640625 C 4.363281 -0.640625 4.835938 -0.800781 5.171875 -1.125 C 5.503906 -1.457031 5.671875 -1.929688 5.671875 -2.546875 L 5.671875 -7.3125 Z M 6.515625 -7.3125 "/></g></g></g><g fill="#e6b35b" fill-opacity="1"><g transform="translate(224.034579, 249.826184)"><g><path d="M 1.859375 -3.03125 L 1.859375 0 L 1 0 L 1 -7.3125 L 3.015625 -7.3125 C 3.910156 -7.3125 4.570312 -7.140625 5 -6.796875 C 5.425781 -6.453125 5.640625 -5.929688 5.640625 -5.234375 C 5.640625 -4.273438 5.148438 -3.625 4.171875 -3.28125 L 6.15625 0 L 5.140625 0 L 3.375 -3.03125 Z M 1.859375 -3.765625 L 3.015625 -3.765625 C 3.617188 -3.765625 4.054688 -3.882812 4.328125 -4.125 C 4.609375 -4.363281 4.75 -4.722656 4.75 -5.203125 C 4.75 -5.679688 4.609375 -6.023438 4.328125 -6.234375 C 4.046875 -6.453125 3.585938 -6.5625 2.953125 -6.5625 L 1.859375 -6.5625 Z M 1.859375 -3.765625 "/></g></g></g><g fill="#e6b35b" fill-opacity="1"><g transform="translate(232.467626, 249.826184)"><g><path d="M 2.859375 -3.65625 L 4.8125 -7.3125 L 5.734375 -7.3125 L 3.296875 -2.828125 L 3.296875 0 L 2.4375 0 L 2.4375 -2.796875 L 0 -7.3125 L 0.921875 -7.3125 Z M 2.859375 -3.65625 "/></g></g></g><g fill="#ffffff" fill-opacity="1"><g transform="translate(101.045164, 228.274936)"><g><path d="M 2.6875 -0.375 C 3.320312 -0.375 3.863281 -0.597656 4.3125 -1.046875 C 4.769531 -1.503906 5.007812 -2.050781 5.03125 -2.6875 L 5.03125 -23.046875 C 5.007812 -23.679688 4.769531 -24.222656 4.3125 -24.671875 C 3.863281 -25.128906 3.320312 -25.359375 2.6875 -25.359375 L 2.203125 -25.359375 L 2.203125 -25.71875 L 10.25 -25.71875 L 10.25 -25.359375 L 9.78125 -25.359375 C 8.894531 -25.359375 8.21875 -24.976562 7.75 -24.21875 C 7.53125 -23.851562 7.421875 -23.460938 7.421875 -23.046875 L 7.421875 -1.140625 L 12.671875 -1.140625 C 14.484375 -1.140625 15.867188 -1.539062 16.828125 -2.34375 C 17.785156 -3.15625 18.582031 -4.359375 19.21875 -5.953125 L 19.59375 -5.953125 L 17.453125 0 L 2.203125 0 L 2.203125 -0.375 Z M 2.6875 -0.375 "/></g></g></g><g fill="#ffffff" fill-opacity="1"><g transform="translate(121.692044, 228.274936)"><g><path d="M 27.015625 -25.359375 L 26.421875 -25.359375 C 25.910156 -25.359375 25.460938 -25.191406 25.078125 -24.859375 C 24.703125 -24.523438 24.5 -24.113281 24.46875 -23.625 L 24.46875 -9.078125 C 24.46875 -6.210938 23.5625 -3.894531 21.75 -2.125 C 19.9375 -0.363281 17.523438 0.515625 14.515625 0.515625 C 11.503906 0.515625 9.0625 -0.359375 7.1875 -2.109375 C 5.3125 -3.859375 4.375 -6.171875 4.375 -9.046875 L 4.375 -23.515625 C 4.375 -24.253906 4.054688 -24.796875 3.421875 -25.140625 C 3.128906 -25.285156 2.796875 -25.359375 2.421875 -25.359375 L 1.84375 -25.359375 L 1.84375 -25.71875 L 9.296875 -25.71875 L 9.296875 -25.359375 L 8.703125 -25.359375 C 8.171875 -25.359375 7.71875 -25.191406 7.34375 -24.859375 C 6.976562 -24.523438 6.785156 -24.101562 6.765625 -23.59375 L 6.765625 -9.5625 C 6.765625 -6.882812 7.476562 -4.722656 8.90625 -3.078125 C 10.34375 -1.441406 12.257812 -0.625 14.65625 -0.625 C 17.0625 -0.625 19.007812 -1.398438 20.5 -2.953125 C 22 -4.515625 22.75 -6.554688 22.75 -9.078125 L 22.75 -23.59375 C 22.726562 -24.101562 22.53125 -24.523438 22.15625 -24.859375 C 21.789062 -25.191406 21.335938 -25.359375 20.796875 -25.359375 L 20.21875 -25.359375 L 20.21875 -25.71875 L 27.015625 -25.71875 Z M 27.015625 -25.359375 "/></g></g></g><g fill="#ffffff" fill-opacity="1"><g transform="translate(150.531543, 228.274936)"><g><path d="M 24.25 -0.375 L 24.765625 -0.375 L 24.765625 0 L 15.796875 0 L 15.796875 -0.375 L 16.234375 -0.375 C 16.773438 -0.375 17.191406 -0.617188 17.484375 -1.109375 C 17.660156 -1.367188 17.75 -1.617188 17.75 -1.859375 C 17.75 -2.109375 17.6875 -2.359375 17.5625 -2.609375 L 11.90625 -11.546875 L 6.234375 -2.640625 C 6.085938 -2.398438 6.015625 -2.148438 6.015625 -1.890625 C 6.015625 -1.628906 6.101562 -1.378906 6.28125 -1.140625 C 6.59375 -0.628906 7.007812 -0.375 7.53125 -0.375 L 8 -0.375 L 8 0 L -0.34375 0 L -0.34375 -0.375 L 0.171875 -0.375 C 0.910156 -0.375 1.609375 -0.578125 2.265625 -0.984375 C 2.929688 -1.398438 3.484375 -1.914062 3.921875 -2.53125 L 10.953125 -13.015625 L 4.515625 -23.1875 C 3.921875 -24.039062 3.171875 -24.664062 2.265625 -25.0625 C 1.773438 -25.257812 1.285156 -25.359375 0.796875 -25.359375 L 0.28125 -25.359375 L 0.28125 -25.71875 L 9.1875 -25.71875 L 9.1875 -25.359375 L 8.734375 -25.359375 C 8.222656 -25.359375 7.804688 -25.113281 7.484375 -24.625 C 7.316406 -24.351562 7.234375 -24.09375 7.234375 -23.84375 C 7.234375 -23.601562 7.296875 -23.359375 7.421875 -23.109375 L 12.484375 -15.171875 L 17.484375 -23.078125 C 17.628906 -23.328125 17.703125 -23.578125 17.703125 -23.828125 C 17.703125 -24.085938 17.628906 -24.335938 17.484375 -24.578125 C 17.191406 -25.097656 16.773438 -25.359375 16.234375 -25.359375 L 15.796875 -25.359375 L 15.796875 -25.71875 L 24.0625 -25.71875 L 24.0625 -25.359375 L 23.546875 -25.359375 C 22.816406 -25.359375 22.125 -25.148438 21.46875 -24.734375 C 20.820312 -24.316406 20.28125 -23.800781 19.84375 -23.1875 L 13.40625 -13.703125 L 20.53125 -2.5 C 21.125 -1.664062 21.875 -1.050781 22.78125 -0.65625 C 23.269531 -0.46875 23.757812 -0.375 24.25 -0.375 Z M 24.25 -0.375 "/></g></g></g><g fill="#ffffff" fill-opacity="1"><g transform="translate(174.852239, 228.274936)"><g><path d="M 1.25 -10.734375 L 1.46875 -11.546875 L 12.5 -11.546875 L 12.71875 -10.734375 L 12.5 -9.890625 L 1.46875 -9.890625 Z M 1.25 -10.734375 "/></g></g></g><g fill="#ffffff" fill-opacity="1"><g transform="translate(188.81276, 228.274936)"><g><path d="M 9.78125 -24.578125 L 7.421875 -24.578125 L 7.421875 -2.6875 C 7.421875 -2.050781 7.644531 -1.503906 8.09375 -1.046875 C 8.550781 -0.597656 9.113281 -0.375 9.78125 -0.375 L 10.21875 -0.375 L 10.25 0 L 2.203125 0 L 2.203125 -0.375 L 2.6875 -0.375 C 3.320312 -0.375 3.863281 -0.59375 4.3125 -1.03125 C 4.769531 -1.46875 5.007812 -2.003906 5.03125 -2.640625 L 5.03125 -23.046875 C 5.007812 -23.679688 4.769531 -24.222656 4.3125 -24.671875 C 3.863281 -25.128906 3.320312 -25.359375 2.6875 -25.359375 L 2.203125 -25.359375 L 2.203125 -25.71875 L 12.125 -25.71875 C 14.351562 -25.71875 16.101562 -25.097656 17.375 -23.859375 C 18.65625 -22.628906 19.296875 -21.023438 19.296875 -19.046875 C 19.296875 -17.078125 18.6875 -15.375 17.46875 -13.9375 C 16.257812 -12.507812 14.785156 -11.796875 13.046875 -11.796875 C 13.410156 -11.628906 13.84375 -11.289062 14.34375 -10.78125 C 14.851562 -10.28125 15.300781 -9.757812 15.6875 -9.21875 C 17.800781 -6.207031 19.175781 -4.351562 19.8125 -3.65625 C 20.445312 -2.957031 20.898438 -2.476562 21.171875 -2.21875 C 21.441406 -1.96875 21.734375 -1.71875 22.046875 -1.46875 C 22.367188 -1.226562 22.6875 -1.03125 23 -0.875 C 23.71875 -0.539062 24.476562 -0.375 25.28125 -0.375 L 25.28125 0 L 23.265625 0 C 22.210938 0 21.234375 -0.1875 20.328125 -0.5625 C 19.421875 -0.945312 18.738281 -1.34375 18.28125 -1.75 C 17.832031 -2.15625 17.441406 -2.546875 17.109375 -2.921875 C 16.773438 -3.296875 15.859375 -4.5625 14.359375 -6.71875 C 12.867188 -8.875 12 -10.101562 11.75 -10.40625 C 11.507812 -10.71875 11.253906 -11.019531 10.984375 -11.3125 C 10.203125 -12.144531 9.421875 -12.5625 8.640625 -12.5625 L 8.640625 -12.9375 C 8.835938 -12.914062 9.09375 -12.90625 9.40625 -12.90625 C 9.726562 -12.90625 10.117188 -12.914062 10.578125 -12.9375 C 13.617188 -13.007812 15.53125 -14.285156 16.3125 -16.765625 C 16.457031 -17.253906 16.53125 -17.710938 16.53125 -18.140625 C 16.53125 -18.566406 16.53125 -18.84375 16.53125 -18.96875 C 16.488281 -20.601562 16.0625 -21.921875 15.25 -22.921875 C 14.4375 -23.929688 13.347656 -24.472656 11.984375 -24.546875 C 11.390625 -24.566406 10.65625 -24.578125 9.78125 -24.578125 Z M 9.78125 -24.578125 "/></g></g></g><g fill="#ffffff" fill-opacity="1"><g transform="translate(213.684535, 228.274936)"><g><path d="M 1.25 -10.734375 L 1.46875 -11.546875 L 12.5 -11.546875 L 12.71875 -10.734375 L 12.5 -9.890625 L 1.46875 -9.890625 Z M 1.25 -10.734375 "/></g></g></g><g fill="#ffffff" fill-opacity="1"><g transform="translate(227.645055, 228.274936)"><g><path d="M 27.015625 -25.359375 L 26.421875 -25.359375 C 25.910156 -25.359375 25.460938 -25.191406 25.078125 -24.859375 C 24.703125 -24.523438 24.5 -24.113281 24.46875 -23.625 L 24.46875 -9.078125 C 24.46875 -6.210938 23.5625 -3.894531 21.75 -2.125 C 19.9375 -0.363281 17.523438 0.515625 14.515625 0.515625 C 11.503906 0.515625 9.0625 -0.359375 7.1875 -2.109375 C 5.3125 -3.859375 4.375 -6.171875 4.375 -9.046875 L 4.375 -23.515625 C 4.375 -24.253906 4.054688 -24.796875 3.421875 -25.140625 C 3.128906 -25.285156 2.796875 -25.359375 2.421875 -25.359375 L 1.84375 -25.359375 L 1.84375 -25.71875 L 9.296875 -25.71875 L 9.296875 -25.359375 L 8.703125 -25.359375 C 8.171875 -25.359375 7.71875 -25.191406 7.34375 -24.859375 C 6.976562 -24.523438 6.785156 -24.101562 6.765625 -23.59375 L 6.765625 -9.5625 C 6.765625 -6.882812 7.476562 -4.722656 8.90625 -3.078125 C 10.34375 -1.441406 12.257812 -0.625 14.65625 -0.625 C 17.0625 -0.625 19.007812 -1.398438 20.5 -2.953125 C 22 -4.515625 22.75 -6.554688 22.75 -9.078125 L 22.75 -23.59375 C 22.726562 -24.101562 22.53125 -24.523438 22.15625 -24.859375 C 21.789062 -25.191406 21.335938 -25.359375 20.796875 -25.359375 L 20.21875 -25.359375 L 20.21875 -25.71875 L 27.015625 -25.71875 Z M 27.015625 -25.359375 "/></g></g></g><g fill="#ffffff" fill-opacity="1"><g transform="translate(256.484554, 228.274936)"><g><path d="M 2.234375 -1.5 C 2.160156 -1.84375 2.125 -2.503906 2.125 -3.484375 C 2.125 -4.472656 2.3125 -5.515625 2.6875 -6.609375 L 3.015625 -6.609375 C 2.992188 -6.335938 2.984375 -6.070312 2.984375 -5.8125 C 2.984375 -4.3125 3.4375 -3.066406 4.34375 -2.078125 C 5.25 -1.085938 6.445312 -0.59375 7.9375 -0.59375 C 9.476562 -0.59375 10.742188 -1.054688 11.734375 -1.984375 C 12.734375 -2.910156 13.234375 -4.078125 13.234375 -5.484375 C 13.234375 -6.898438 12.753906 -8.050781 11.796875 -8.9375 L 4.734375 -15.46875 C 3.410156 -16.695312 2.75 -18.179688 2.75 -19.921875 C 2.75 -21.660156 3.332031 -23.144531 4.5 -24.375 C 5.664062 -25.613281 7.238281 -26.234375 9.21875 -26.234375 C 10.15625 -26.234375 11.210938 -26.113281 12.390625 -25.875 L 13.8125 -25.875 L 13.8125 -21.359375 L 13.484375 -21.359375 C 13.484375 -22.503906 13.082031 -23.421875 12.28125 -24.109375 C 11.488281 -24.796875 10.46875 -25.140625 9.21875 -25.140625 C 7.96875 -25.140625 6.921875 -24.722656 6.078125 -23.890625 C 5.234375 -23.054688 4.8125 -22.015625 4.8125 -20.765625 C 4.8125 -19.515625 5.300781 -18.4375 6.28125 -17.53125 L 13.53125 -10.84375 C 14.75 -9.71875 15.359375 -8.171875 15.359375 -6.203125 C 15.359375 -4.242188 14.734375 -2.632812 13.484375 -1.375 C 12.234375 -0.113281 10.566406 0.515625 8.484375 0.515625 C 7.410156 0.515625 6.265625 0.347656 5.046875 0.015625 C 3.835938 -0.316406 2.898438 -0.820312 2.234375 -1.5 Z M 2.234375 -1.5 "/></g></g></g><path stroke-linecap="butt" transform="matrix(0.74403, 0, 0, 0.75, 102.362628, 245.888715)" fill="none" stroke-linejoin="miter" d="M 0.000877749 0.502547 L 37.313504 0.502547 " stroke="#ffffff" stroke-width="1" stroke-opacity="1" stroke-miterlimit="4"/><path stroke-linecap="butt" transform="matrix(0.74403, 0, 0, 0.75, 244.653108, 245.888715)" fill="none" stroke-linejoin="miter" d="M -0.00102776 0.502547 L 37.311599 0.502547 " stroke="#ffffff" stroke-width="1" stroke-opacity="1" stroke-miterlimit="4"/></svg>